<?xml version="1.0" encoding="UTF-8" standalone="no"?>
<!-- Generator: Adobe Illustrator 21.0.0, SVG Export Plug-In . SVG Version: 6.00 Build 0)  -->

<svg width="1024" height="1024" viewBox="0 0 1024 1024" fill="none" xmlns="http://www.w3.org/2000/svg">
  <g>
    <path d="M512 0C229.2 0 0 229.2 0 512C0 794.8 229.2 1024 512 1024C794.8 1024 1024 794.8 1024 512C1024 229.2 794.8 0 512 0ZM512 972C260.4 972 52 763.6 52 512C52 260.4 260.4 52 512 52C763.6 52 972 260.4 972 512C972 763.6 763.6 972 512 972Z" fill="url(#paint0_linear)"/>
    <path d="M681.7 742C676.3 742 671.5 738.7 670.1 733.6L593.1 470.1C591.8 465 595.2 460 600.3 458.6C605.4 457.3 610.4 460.6 611.7 465.7L688.7 729.2C689.9 734.3 686.6 739.3 681.5 740.6C681.3 740.7 681.2 740.9 681 741C681.2 741.3 681.4 741.6 681.7 742Z" fill="url(#paint1_linear)"/>
    <path d="M418.1 742C412.7 742 407.9 738.7 406.5 733.6L329.5 470.1C328.2 465 331.6 460 336.7 458.6C341.8 457.3 346.8 460.6 348.1 465.7L425.1 729.2C426.3 734.3 423 739.3 417.9 740.6C417.7 740.7 417.6 740.9 417.4 741C417.6 741.3 417.8 741.6 418.1 742Z" fill="url(#paint2_linear)"/>
    <path d="M549.9 769.1C536.2 769.1 524.5 757.4 524.5 743.7C524.5 730 536.2 718.3 549.9 718.3C563.6 718.3 575.3 730 575.3 743.7C575.3 757.4 563.6 769.1 549.9 769.1ZM549.9 729.3C540.3 729.3 532.5 737.1 532.5 746.7C532.5 756.3 540.3 764.1 549.9 764.1C559.5 764.1 567.3 756.3 567.3 746.7C567.3 737.1 559.5 729.3 549.9 729.3Z" fill="url(#paint3_linear)"/>
    <path d="M480.1 769.1C466.4 769.1 454.7 757.4 454.7 743.7C454.7 730 466.4 718.3 480.1 718.3C493.8 718.3 505.5 730 505.5 743.7C505.5 757.4 493.8 769.1 480.1 769.1ZM480.1 729.3C470.5 729.3 462.7 737.1 462.7 746.7C462.7 756.3 470.5 764.1 480.1 764.1C489.7 764.1 497.5 756.3 497.5 746.7C497.5 737.1 489.7 729.3 480.1 729.3Z" fill="url(#paint4_linear)"/>
    <path d="M618.7 769.1C605 769.1 593.3 757.4 593.3 743.7C593.3 730 605 718.3 618.7 718.3C632.4 718.3 644.1 730 644.1 743.7C644.1 757.4 632.4 769.1 618.7 769.1ZM618.7 729.3C609.1 729.3 601.3 737.1 601.3 746.7C601.3 756.3 609.1 764.1 618.7 764.1C628.3 764.1 636.1 756.3 636.1 746.7C636.1 737.1 628.3 729.3 618.7 729.3Z" fill="url(#paint5_linear)"/>
    <defs>
      <linearGradient id="paint0_linear" x1="512" y1="0" x2="512" y2="1024" gradientUnits="userSpaceOnUse">
        <stop stop-color="#1D2B64"/>
        <stop offset="1" stop-color="#F8CDDA"/>
      </linearGradient>
      <linearGradient id="paint1_linear" x1="635.9" y1="458.6" x2="635.9" y2="742" gradientUnits="userSpaceOnUse">
        <stop stop-color="#1D2B64"/>
        <stop offset="1" stop-color="#F8CDDA"/>
      </linearGradient>
      <linearGradient id="paint2_linear" x1="372.9" y1="458.6" x2="372.9" y2="742" gradientUnits="userSpaceOnUse">
        <stop stop-color="#1D2B64"/>
        <stop offset="1" stop-color="#F8CDDA"/>
      </linearGradient>
      <linearGradient id="paint3_linear" x1="549.9" y1="718.3" x2="549.9" y2="769.1" gradientUnits="userSpaceOnUse">
        <stop stop-color="#1D2B64"/>
        <stop offset="1" stop-color="#F8CDDA"/>
      </linearGradient>
      <linearGradient id="paint4_linear" x1="480.1" y1="718.3" x2="480.1" y2="769.1" gradientUnits="userSpaceOnUse">
        <stop stop-color="#1D2B64"/>
        <stop offset="1" stop-color="#F8CDDA"/>
      </linearGradient>
      <linearGradient id="paint5_linear" x1="618.7" y1="718.3" x2="618.7" y2="769.1" gradientUnits="userSpaceOnUse">
        <stop stop-color="#1D2B64"/>
        <stop offset="1" stop-color="#F8CDDA"/>
      </linearGradient>
    </defs>
  </g>
</svg>
